<?xml version="1.0" encoding="UTF-8" standalone="no"?>
<svg width="60" height="61" viewBox="0 0 60 61" fill="none" xmlns="http://www.w3.org/2000/svg">
  <defs>
    <filter id="glow" x="-50%" y="-50%" width="200%" height="200%">
      <feGaussianBlur stdDeviation="6" result="blur"/>
      <feMerge>
        <feMergeNode in="blur"/>
        <feMergeNode in="SourceGraphic"/>
      </feMerge>
    </filter>
    <linearGradient id="giftGrad" x1="0" y1="0" x2="1" y2="1">
      <stop offset="0" stop-color="#E8A6C9"/>
      <stop offset="1" stop-color="#E8A6C9"/>
    </linearGradient>
  </defs>

  <!-- Background glow -->
  <g filter="url(#glow)" opacity="0.9">
    <ellipse cx="30" cy="30.5" rx="20" ry="20" fill="#E8A6C9" opacity="0.35"/>
  </g>

  <!-- Gift box -->
  <g transform="translate(30,30.5)">
    <!-- Bottom box -->
    <rect x="-14" y="-8" width="28" height="18" rx="2.5" fill="white"/>
    <rect x="-14" y="-8" width="28" height="18" rx="2.5" fill="url(#giftGrad)" opacity="0.15"/>
    <rect x="-14" y="-8" width="28" height="18" rx="2.5" stroke="#E8A6C9" stroke-width="1.4" fill="none"/>

    <!-- Lid -->
    <rect x="-16" y="-14" width="32" height="8" rx="2.5" fill="white"/>
    <rect x="-16" y="-14" width="32" height="8" rx="2.5" fill="url(#giftGrad)" opacity="0.18"/>
    <rect x="-16" y="-14" width="32" height="8" rx="2.5" stroke="#E8A6C9" stroke-width="1.4" fill="none"/>

    <!-- Ribbon vertical -->
    <rect x="-2" y="-14" width="4" height="24" fill="#E8A6C9" opacity="0.8"/>
    <!-- Ribbon horizontal on lid -->
    <rect x="-16" y="-11" width="32" height="3" fill="#E8A6C9" opacity="0.8"/>

    <!-- Simple bow -->
    <path d="M0,-14 C-4,-18 -10,-16 -10,-12 C-10,-8 -4,-8 0,-11Z" fill="#E8A6C9" opacity="0.9"/>
    <path d="M0,-14 C4,-18 10,-16 10,-12 C10,-8 4,-8 0,-11Z" fill="#E8A6C9" opacity="0.9"/>
    <circle cx="0" cy="-12" r="2" fill="#E8A6C9"/>
  </g>
</svg>
