<svg width="60" height="61" viewBox="0 0 60 61" fill="none" xmlns="http://www.w3.org/2000/svg">
<g filter="url(#filter0_d_203_1735)">
<rect x="18" y="18.6133" width="24" height="24" rx="12" fill="#464334"/>
<path d="M38 25.1133H35V23.1133C35 22.0033 34.11 21.1133 33 21.1133H27C25.89 21.1133 25 22.0033 25 23.1133V25.1133H22C20.89 25.1133 20 26.0033 20 27.1133V38.1133C20 39.2233 20.89 40.1133 22 40.1133H38C39.11 40.1133 40 39.2233 40 38.1133V27.1133C40 26.0033 39.11 25.1133 38 25.1133ZM27 23.1133H33V25.1133H27V23.1133ZM38 38.1133H22V36.1133H38V38.1133ZM38 33.1133H22V27.1133H25V29.1133H27V27.1133H33V29.1133H35V27.1133H38V33.1133Z" fill="#FFE048" fill-opacity="0.8"/>
</g>
<defs>
<filter id="filter0_d_203_1735" x="0" y="0.613281" width="60" height="60" filterUnits="userSpaceOnUse" color-interpolation-filters="sRGB">
<feFlood flood-opacity="0" result="BackgroundImageFix"/>
<feColorMatrix in="SourceAlpha" type="matrix" values="0 0 0 0 0 0 0 0 0 0 0 0 0 0 0 0 0 0 127 0" result="hardAlpha"/>
<feMorphology radius="3" operator="dilate" in="SourceAlpha" result="effect1_dropShadow_203_1735"/>
<feOffset/>
<feGaussianBlur stdDeviation="7.5"/>
<feComposite in2="hardAlpha" operator="out"/>
<feColorMatrix type="matrix" values="0 0 0 0 0.839216 0 0 0 0 0.745752 0 0 0 0 0.278431 0 0 0 0.23 0"/>
<feBlend mode="normal" in2="BackgroundImageFix" result="effect1_dropShadow_203_1735"/>
<feBlend mode="normal" in="SourceGraphic" in2="effect1_dropShadow_203_1735" result="shape"/>
</filter>
</defs>
</svg>
