<svg width="60" height="61" viewBox="0 0 60 61" fill="none" xmlns="http://www.w3.org/2000/svg">
<g filter="url(#filter0_d_203_1700)">
<rect x="18" y="18.6133" width="24" height="24" rx="12" fill="#34463A"/>
<path d="M28.8 22.2622L22.8 26.7622C22.3 27.1422 22 27.7322 22 28.3622V37.3622C22 38.4622 22.9 39.3622 24 39.3622H36C37.1 39.3622 38 38.4622 38 37.3622V28.3622C38 27.7322 37.7 27.1422 37.2 26.7622L31.2 22.2622C30.49 21.7322 29.51 21.7322 28.8 22.2622ZM30.5 30.8622C30.5 31.6922 29.83 32.3622 29 32.3622V35.8622C29 36.1422 28.78 36.3622 28.5 36.3622C28.22 36.3622 28 36.1422 28 35.8622V32.3622C27.17 32.3622 26.5 31.6922 26.5 30.8622V28.3622C26.5 28.0822 26.72 27.8622 27 27.8622C27.28 27.8622 27.5 28.0822 27.5 28.3622V30.8622H28V28.3622C28 28.0822 28.22 27.8622 28.5 27.8622C28.78 27.8622 29 28.0822 29 28.3622V30.8622H29.5V28.3622C29.5 28.0822 29.72 27.8622 30 27.8622C30.28 27.8622 30.5 28.0822 30.5 28.3622V30.8622ZM32.5 36.3622C32.22 36.3622 32 36.1422 32 35.8622V32.8622H31.5C31.22 32.8622 31 32.6422 31 32.3622V29.8622C31 28.9822 31.57 28.2322 32.36 27.9722C32.67 27.8622 33 28.1122 33 28.4522V35.8622C33 36.1422 32.78 36.3622 32.5 36.3622Z" fill="#4DFF88" fill-opacity="0.8"/>
</g>
<defs>
<filter id="filter0_d_203_1700" x="0" y="0.613281" width="60" height="60" filterUnits="userSpaceOnUse" color-interpolation-filters="sRGB">
<feFlood flood-opacity="0" result="BackgroundImageFix"/>
<feColorMatrix in="SourceAlpha" type="matrix" values="0 0 0 0 0 0 0 0 0 0 0 0 0 0 0 0 0 0 127 0" result="hardAlpha"/>
<feMorphology radius="3" operator="dilate" in="SourceAlpha" result="effect1_dropShadow_203_1700"/>
<feOffset/>
<feGaussianBlur stdDeviation="7.5"/>
<feComposite in2="hardAlpha" operator="out"/>
<feColorMatrix type="matrix" values="0 0 0 0 0.278431 0 0 0 0 0.839216 0 0 0 0 0.462745 0 0 0 0.23 0"/>
<feBlend mode="normal" in2="BackgroundImageFix" result="effect1_dropShadow_203_1700"/>
<feBlend mode="normal" in="SourceGraphic" in2="effect1_dropShadow_203_1700" result="shape"/>
</filter>
</defs>
</svg>
