<?xml version="1.0" encoding="UTF-8" standalone="no"?>
<svg width="60" height="61" viewBox="0 0 60 61" fill="none" xmlns="http://www.w3.org/2000/svg">
  <defs>
    <!-- Soft glow filter -->
    <filter id="glow" x="-50%" y="-50%" width="200%" height="200%">
      <feGaussianBlur stdDeviation="6" result="blur"/>
      <feMerge>
        <feMergeNode in="blur"/>
        <feMergeNode in="SourceGraphic"/>
      </feMerge>
    </filter>
    <!-- Subtle inner stroke -->
    <linearGradient id="noteGrad" x1="0" y1="0" x2="1" y2="1">
      <stop offset="0" stop-color="#0B6B3A"/>
      <stop offset="1" stop-color="#0B6B3A"/>
    </linearGradient>
  </defs>

  <!-- Background glow ellipse -->
  <g filter="url(#glow)" opacity="0.9">
    <ellipse cx="30" cy="30.5" rx="20" ry="20" fill="#0B6B3A" opacity="0.35"/>
  </g>

  <!-- Notes group (centered) -->
  <g transform="translate(30,30.5)">
    <!-- Back note (slightly rotated) -->
    <g transform="translate(-16,-12) rotate(-8, 16, 12)">
      <rect x="2" y="2" width="28" height="20" rx="2.5" fill="white" />
      <rect x="2" y="2" width="28" height="20" rx="2.5" fill="url(#noteGrad)" opacity="0.15"/>
      <rect x="2" y="2" width="28" height="20" rx="2.5" stroke="#0B6B3A" stroke-width="1.2" fill="none"/>
      <!-- simple money mark -->
      <circle cx="16" cy="12" r="5" fill="#0B6B3A" opacity="0.12"/>
      <path d="M14 12h4M16 10v4" stroke="#0B6B3A" stroke-width="1.2" stroke-linecap="round"/>
    </g>

    <!-- Front note -->
    <g transform="translate(-14,-10) rotate(7, 16, 12)">
      <rect x="2" y="2" width="28" height="20" rx="2.5" fill="white" />
      <rect x="2" y="2" width="28" height="20" rx="2.5" fill="url(#noteGrad)" opacity="0.18"/>
      <rect x="2" y="2" width="28" height="20" rx="2.5" stroke="#0B6B3A" stroke-width="1.4" fill="none"/>
      <!-- simple money mark -->
      <circle cx="16" cy="12" r="6" fill="#0B6B3A" opacity="0.12"/>
      <path d="M13.5 12h5M16 9.5v5" stroke="#0B6B3A" stroke-width="1.4" stroke-linecap="round"/>
    </g>
  </g>
</svg>
