<svg width="73" height="73" viewBox="0 0 73 73" fill="none" xmlns="http://www.w3.org/2000/svg">
<g filter="url(#filter0_d_203_2010)">
<rect x="20.25" y="20.8633" width="32" height="32" rx="16" fill="#533535"/>
<path d="M36.25 28.1882L46.29 45.5349H26.21L36.25 28.1882ZM23.9033 44.2016C22.8767 45.9749 24.1567 48.2016 26.21 48.2016H46.29C48.3433 48.2016 49.6233 45.9749 48.5967 44.2016L38.5567 26.8549C37.53 25.0816 34.97 25.0816 33.9433 26.8549L23.9033 44.2016ZM34.9167 34.8682V37.5349C34.9167 38.2682 35.5167 38.8682 36.25 38.8682C36.9833 38.8682 37.5833 38.2682 37.5833 37.5349V34.8682C37.5833 34.1349 36.9833 33.5349 36.25 33.5349C35.5167 33.5349 34.9167 34.1349 34.9167 34.8682ZM34.9167 41.5349H37.5833V44.2016H34.9167V41.5349Z" fill="#FF4848" fill-opacity="0.8"/>
</g>
<defs>
<filter id="filter0_d_203_2010" x="0.25" y="0.863281" width="72" height="72" filterUnits="userSpaceOnUse" color-interpolation-filters="sRGB">
<feFlood flood-opacity="0" result="BackgroundImageFix"/>
<feColorMatrix in="SourceAlpha" type="matrix" values="0 0 0 0 0 0 0 0 0 0 0 0 0 0 0 0 0 0 127 0" result="hardAlpha"/>
<feMorphology radius="6" operator="dilate" in="SourceAlpha" result="effect1_dropShadow_203_2010"/>
<feOffset/>
<feGaussianBlur stdDeviation="7"/>
<feComposite in2="hardAlpha" operator="out"/>
<feColorMatrix type="matrix" values="0 0 0 0 0.839216 0 0 0 0 0.278431 0 0 0 0 0.278431 0 0 0 0.25 0"/>
<feBlend mode="normal" in2="BackgroundImageFix" result="effect1_dropShadow_203_2010"/>
<feBlend mode="normal" in="SourceGraphic" in2="effect1_dropShadow_203_2010" result="shape"/>
</filter>
</defs>
</svg>
