<svg width="135" height="136" viewBox="0 0 135 136" fill="none" xmlns="http://www.w3.org/2000/svg">
<path d="M134.34 68.1132C134.34 105.028 104.414 134.953 67.4999 134.953C30.5853 134.953 0.660156 105.028 0.660156 68.1132C0.660156 31.1986 30.5853 1.27344 67.4999 1.27344C104.414 1.27344 134.34 31.1986 134.34 68.1132ZM20.7121 68.1132C20.7121 93.9534 41.6597 114.901 67.4999 114.901C93.3401 114.901 114.288 93.9534 114.288 68.1132C114.288 42.273 93.3401 21.3254 67.4999 21.3254C41.6597 21.3254 20.7121 42.273 20.7121 68.1132Z" fill="white"/>
<path d="M134.34 68.1132C134.34 82.2284 129.871 95.9812 121.574 107.401C113.278 118.82 101.579 127.32 88.1545 131.682C74.7302 136.043 60.2696 136.043 46.8453 131.682C33.421 127.32 21.7221 118.82 13.4254 107.401L29.6478 95.6144C35.4554 103.608 43.6446 109.558 53.0417 112.611C62.4387 115.664 72.5611 115.664 81.9582 112.611C91.3552 109.558 99.5444 103.608 105.352 95.6144C111.16 87.6208 114.288 77.9938 114.288 68.1132H134.34Z" fill="#48DD79"/>
<path d="M13.4605 107.449C8.08684 100.066 4.2828 91.661 2.28303 82.7516C0.283265 73.8423 0.130175 64.6177 1.83321 55.6469L21.5333 59.3868C20.3412 65.6663 20.4483 72.1236 21.8482 78.3601C23.248 84.5967 25.9108 90.4803 29.6724 95.6479L13.4605 107.449Z" fill="#DD7744"/>
<path d="M1.80158 55.8136C3.87332 44.7474 8.70677 34.3838 15.8534 25.6846C23.0001 16.9853 32.2283 10.2321 42.6819 6.0518L50.1273 24.6702C42.8098 27.5965 36.35 32.3236 31.3474 38.4132C26.3447 44.5027 22.9613 51.7572 21.5111 59.5035L1.80158 55.8136Z" fill="#4868DD"/>
<path d="M42.316 6.19947C52.7447 1.95747 64.076 0.418456 75.2583 1.72523C86.4407 3.03201 97.1117 7.14223 106.281 13.6745L94.647 30.0061C88.2283 25.4335 80.7585 22.5564 72.9309 21.6416C65.1032 20.7269 57.1714 21.8042 49.8713 24.7736L42.316 6.19947Z" fill="#9044DD"/>
<path d="M105.25 12.9547C114.541 19.3133 122.075 27.9158 127.154 37.9638C132.232 48.0118 134.69 59.1798 134.3 70.4315L114.26 69.736C114.533 61.8598 112.813 54.0422 109.258 47.0086C105.703 39.975 100.429 33.9533 93.9253 29.5022L105.25 12.9547Z" fill="#DD4444"/>
</svg>
